<svg xmlns="http://www.w3.org/2000/svg" shape-rendering="geometricPrecision" text-rendering="geometricPrecision" image-rendering="optimizeQuality" fill-rule="evenodd" clip-rule="evenodd" viewBox="0 0 373 512.546"><path d="M217.894 1.37a7.737 7.737 0 0110.761 1.971l.203.308c9.419 15.038 15.642 30.753 17.444 47.345l.029.272c13.716-9.859 29.56-15.887 46.726-18.643a7.733 7.733 0 018.85 6.426l.045.335.016-.002c2.018 17.628.87 34.487-4.642 50.232l-.096.272c16.614-2.993 33.507-1.612 50.19 3.289a7.742 7.742 0 015.244 9.61l-.091.333c-5.765 16.778-14.063 31.508-25.83 43.361l-.211.212c16.308 4.454 30.962 12.966 43.893 24.556a7.73 7.73 0 01.606 10.912l-.249.266c-12.419 12.668-26.243 22.39-41.949 28.018l-.272.096c12.8 11.036 22.367 25.036 29.058 41.084a7.746 7.746 0 01-4.832 10.361c-16.567 6.004-33.114 8.783-49.582 7.117l-.321-.034c6.807 15.475 9.416 32.215 8.552 49.549a7.74 7.74 0 01-8.094 7.366l-.672-.06c-17.552-1.711-33.704-6.327-47.87-14.933l-.271-.167c-.516 16.915-5.367 33.157-13.609 48.43a7.745 7.745 0 01-11.145 2.758 142.367 142.367 0 01-9.623-6.334v50.803c18.359-41.888 57.199-65.174 107.569-64.715-2.184 76.674-46.472 97.683-107.569 114.395v56.387h-31.267v-27.58c-62.581 7.312-118.87-1.122-151.434-69.844 53.648-24.16 113.084-10.351 151.434 34.297V334.804c-7.456 11.942-17.349 22.17-29.108 30.761a7.743 7.743 0 01-10.821-1.667l-.211-.304c-9.812-14.791-16.455-30.335-18.699-46.868l-.038-.287c-13.454 10.236-29.131 16.687-46.205 19.9a7.74 7.74 0 01-9.033-6.183l-.059-.364c-2.489-17.562-1.793-34.442 3.295-50.328l.092-.284c-16.555 3.449-33.474 2.529-50.256-1.918a7.742 7.742 0 01-5.516-9.457l.096-.332c5.318-16.952 13.216-31.904 24.645-44.051l.195-.204c-16.412-4.015-31.285-12.134-44.52-23.373a7.744 7.744 0 01-.91-10.913l.302-.336c12.074-12.965 25.62-23.034 41.151-29.073l.253-.097c-13.074-10.676-23.008-24.419-30.133-40.295a7.735 7.735 0 013.911-10.215l.311-.13-.008-.022c16.506-6.527 33.082-9.798 49.699-8.564l.327.025c-7.214-15.279-10.266-31.936-9.866-49.284a7.732 7.732 0 017.881-7.578l.364.016v-.016c17.738 1.214 34.123 5.398 48.595 13.667l.249.143c.066-16.899 4.481-33.254 12.313-48.747A7.741 7.741 0 01137.578 5l.299.16c15.471 8.711 28.46 19.547 37.983 33.271a91.263 91.263 0 014.362 6.924 97.966 97.966 0 012.837-5.804c8.144-15.346 20.111-28.016 34.835-38.181zm-31.5 132.507c27.174 0 49.203 22.028 49.203 49.203 0 27.173-22.029 49.201-49.203 49.201-27.173 0-49.202-22.028-49.202-49.201 0-27.175 22.029-49.203 49.202-49.203zm0-36.323c47.234 0 85.526 38.292 85.526 85.526 0 47.233-38.292 85.526-85.526 85.526-47.234 0-85.526-38.293-85.526-85.526 0-47.234 38.292-85.526 85.526-85.526zm49.203 165.512c16.569 32.629 13.779 64.209-1.498 92.519-15.894-9.53-28.772-21.34-37.311-36.354 5.088-12.721 7.698-26.973 7.322-42.814l-.034-.689a8.733 8.733 0 00-.048-.4c10.827-2.052 21.35-6.148 31.569-12.262zm-39.22 13.39c.909 36.583-15.201 63.887-41.177 82.865-10.246-15.449-16.786-31.658-18.03-48.889 10.046-9.273 18.517-20.967 24.982-35.351a7.728 7.728 0 00.455-1.145c10.656 2.807 21.916 3.639 33.77 2.52zm-41.166-4.797c-14.925 33.414-41.219 51.123-72.833 57.072-2.601-18.356-1.527-35.8 4.77-51.89 13.15-4.074 25.912-11.045 38.004-21.349l.394-.363.27-.28c8.41 7.121 18.214 12.719 29.395 16.81zm-35.091-22.047c-27.854 23.735-59.21 28.402-90.307 20.163 5.552-17.681 14.026-32.96 26.626-44.772 13.541 1.973 27.976 1.191 43.237-2.85a7.644 7.644 0 001.149-.361c4.527 10.045 10.965 19.315 19.295 27.82zm-22.184-35.006c-35.358 9.433-65.671.15-90.193-20.672 12.623-13.57 26.848-23.713 43.307-28.951 11.306 7.561 24.591 13.047 40.018 15.988a8.08 8.08 0 001.033.189l.395.035c-.239 11.014 1.583 22.15 5.44 33.411zM92.98 173.46c-35.976-6.705-59.34-28.131-72.512-57.481 17.241-6.817 34.455-9.85 51.571-7.488 7.027 11.818 16.783 22.589 29.632 31.94l.453.304c.112.069.225.136.34.199-4.963 9.846-8.117 20.691-9.484 32.526zm13.237-39.273c-29.586-21.536-41.453-50.933-40.708-83.094 18.495 1.267 35.335 5.938 49.767 15.436 1.244 13.601 5.35 27.404 12.79 41.234a7.625 7.625 0 00.685 1.168c-8.707 6.747-16.212 15.173-22.534 25.256zm28.853-29.75c-17.436-32.175-15.492-63.816-.978-92.525 28.99 16.344 48.455 40.29 50.877 77.408-17.52.04-34.147 5.113-49.899 15.117zm49.755-49.812c7.101-19.474 20.241-34.999 37.464-46.889 9.83 15.715 15.933 32.09 16.717 49.346-10.345 9.052-19.171 20.605-26.044 34.948l-.212.486c-.05.126-.097.252-.139.379-6.394-1.869-13.027-3.023-19.897-3.466a8.429 8.429 0 00-.015-.593c-.833-12.756-3.545-24.096-7.874-34.211zm35.109 40.74c15.814-33.001 42.572-50.003 74.335-55.104 2.107 18.41.57 35.81-6.145 51.718-13.169 3.696-26.042 10.279-38.363 20.184a7.575 7.575 0 00-.894.789c-8.216-7.341-17.867-13.198-28.933-17.587zm34.49 22.979c28.479-22.981 59.949-26.809 90.813-17.742-6.025 17.533-14.908 32.585-27.827 44.056-13.574-2.356-28.102-1.953-43.535 1.725l.002.011-.517.141a8.2 8.2 0 00-.392.133c-4.256-10.161-10.446-19.599-18.544-28.324zm21.24 35.587c35.598-8.485 65.651 1.605 89.607 23.075-12.98 13.226-27.47 22.986-44.061 27.782-11.21-7.941-24.489-13.823-40.016-17.157l-.069-.015-.516-.091a7.892 7.892 0 00-.4-.045c.532-11.005-.99-22.188-4.545-33.549zm3.854 41.264c35.783 7.663 58.566 29.708 70.947 59.399-17.414 6.353-34.7 8.925-51.745 6.107-6.659-11.923-16.035-22.878-28.483-32.513a8 8 0 00-1.059-.753c5.22-9.704 8.658-20.456 10.34-32.24zm-14.284 38.903c29.001 22.32 40.076 52.024 38.472 84.154-18.453-1.761-35.164-6.881-49.335-16.761-.884-13.732-4.676-27.757-11.865-41.91l-.272-.486a6.998 6.998 0 00-.215-.341c8.889-6.515 16.623-14.74 23.215-24.656z"/></svg>